<?xml version="1.0" standalone="no"?><!DOCTYPE svg PUBLIC "-//W3C//DTD SVG 1.1//EN" "http://www.w3.org/Graphics/SVG/1.1/DTD/svg11.dtd"><svg t="1666336223776" class="icon" viewBox="0 0 1024 1024" version="1.1" xmlns="http://www.w3.org/2000/svg" p-id="4114" xmlns:xlink="http://www.w3.org/1999/xlink" width="32" height="32"><path d="M877.714286 0a146.285714 146.285714 0 0 1 146.285714 146.285714v731.428572a146.285714 146.285714 0 0 1-146.285714 146.285714H146.285714a146.285714 146.285714 0 0 1-146.285714-146.285714V146.285714a146.285714 146.285714 0 0 1 146.285714-146.285714h731.428572z m0 73.142857H146.285714a73.142857 73.142857 0 0 0-72.630857 64.585143L73.142857 146.285714v731.428572a73.142857 73.142857 0 0 0 64.585143 72.630857L146.285714 950.857143h731.428572a73.142857 73.142857 0 0 0 72.630857-64.585143L950.857143 877.714286V146.285714a73.142857 73.142857 0 0 0-64.585143-72.630857L877.714286 73.142857z m-621.714286 658.285714a36.571429 36.571429 0 0 1 36.571429 36.571429v73.142857a36.571429 36.571429 0 0 1-36.571429 36.571429h-73.142857a36.571429 36.571429 0 0 1-36.571429-36.571429v-73.142857a36.571429 36.571429 0 0 1 36.571429-36.571429h73.142857z m195.072 0a36.571429 36.571429 0 0 1 36.571429 36.571429v73.142857a36.571429 36.571429 0 0 1-29.988572 35.986286l-6.582857 0.585143h-73.142857a36.571429 36.571429 0 0 1-36.571429-36.571429v-73.142857a36.571429 36.571429 0 0 1 36.571429-36.571429h73.142857z m194.998857 0a36.571429 36.571429 0 0 1 36.571429 36.571429v73.142857a36.571429 36.571429 0 0 1-36.571429 36.571429h-73.142857a36.571429 36.571429 0 0 1-36.571429-36.571429v-73.142857a36.571429 36.571429 0 0 1 36.571429-36.571429h73.142857z m195.072 0a36.571429 36.571429 0 0 1 36.571429 36.571429v73.142857a36.571429 36.571429 0 0 1-36.571429 36.571429h-73.142857a36.571429 36.571429 0 0 1-36.571429-36.571429v-73.142857a36.571429 36.571429 0 0 1 36.571429-36.571429h73.142857z m-585.142857-195.072a36.571429 36.571429 0 0 1 36.571429 36.571429v73.142857a36.571429 36.571429 0 0 1-36.571429 36.571429h-73.142857a36.571429 36.571429 0 0 1-36.571429-36.571429v-73.142857a36.571429 36.571429 0 0 1 36.571429-36.571429h73.142857z m195.072 0a36.571429 36.571429 0 0 1 36.571429 36.571429v73.142857a36.571429 36.571429 0 0 1-29.988572 35.986286l-6.582857 0.585143h-73.142857a36.571429 36.571429 0 0 1-36.571429-36.571429v-73.142857a36.571429 36.571429 0 0 1 36.571429-36.571429h73.142857z m194.998857 0a36.571429 36.571429 0 0 1 36.571429 36.571429v73.142857a36.571429 36.571429 0 0 1-36.571429 36.571429h-73.142857a36.571429 36.571429 0 0 1-36.571429-36.571429v-73.142857a36.571429 36.571429 0 0 1 36.571429-36.571429h73.142857z m195.072 0a36.571429 36.571429 0 0 1 36.571429 36.571429v73.142857a36.571429 36.571429 0 0 1-36.571429 36.571429h-73.142857a36.571429 36.571429 0 0 1-36.571429-36.571429v-73.142857a36.571429 36.571429 0 0 1 36.571429-36.571429h73.142857z m-585.142857-194.998857a36.571429 36.571429 0 0 1 36.571429 36.571429v73.142857a36.571429 36.571429 0 0 1-36.571429 36.571429h-73.142857a36.571429 36.571429 0 0 1-36.571429-36.571429v-73.142857a36.571429 36.571429 0 0 1 36.571429-36.571429h73.142857z m195.072 0a36.571429 36.571429 0 0 1 36.571429 36.571429v73.142857a36.571429 36.571429 0 0 1-29.988572 35.986286l-6.582857 0.585143h-73.142857a36.571429 36.571429 0 0 1-36.571429-36.571429v-73.142857a36.571429 36.571429 0 0 1 36.571429-36.571429h73.142857z m194.998857 0a36.571429 36.571429 0 0 1 36.571429 36.571429v73.142857a36.571429 36.571429 0 0 1-36.571429 36.571429h-73.142857a36.571429 36.571429 0 0 1-36.571429-36.571429v-73.142857a36.571429 36.571429 0 0 1 36.571429-36.571429h73.142857z m195.072 0a36.571429 36.571429 0 0 1 36.571429 36.571429v73.142857a36.571429 36.571429 0 0 1-36.571429 36.571429h-73.142857a36.571429 36.571429 0 0 1-36.571429-36.571429v-73.142857a36.571429 36.571429 0 0 1 36.571429-36.571429h73.142857zM256 146.285714a36.571429 36.571429 0 0 1 36.571429 36.571429v73.142857a36.571429 36.571429 0 0 1-36.571429 36.571429h-73.142857a36.571429 36.571429 0 0 1-36.571429-36.571429v-73.142857a36.571429 36.571429 0 0 1 36.571429-36.571429h73.142857z m195.072 0a36.571429 36.571429 0 0 1 36.571429 36.571429v73.142857a36.571429 36.571429 0 0 1-29.988572 35.986286L451.072 292.571429h-73.142857a36.571429 36.571429 0 0 1-36.571429-36.571429v-73.142857a36.571429 36.571429 0 0 1 36.571429-36.571429h73.142857z m194.998857 0a36.571429 36.571429 0 0 1 36.571429 36.571429v73.142857a36.571429 36.571429 0 0 1-36.571429 36.571429h-73.142857a36.571429 36.571429 0 0 1-36.571429-36.571429v-73.142857a36.571429 36.571429 0 0 1 36.571429-36.571429h73.142857zM841.142857 146.285714a36.571429 36.571429 0 0 1 36.571429 36.571429v73.142857a36.571429 36.571429 0 0 1-36.571429 36.571429h-73.142857a36.571429 36.571429 0 0 1-36.571429-36.571429v-73.142857a36.571429 36.571429 0 0 1 36.571429-36.571429h73.142857z" fill="#000000" p-id="4115"></path></svg>