<?xml version="1.0" standalone="no"?><!DOCTYPE svg PUBLIC "-//W3C//DTD SVG 1.1//EN" "http://www.w3.org/Graphics/SVG/1.1/DTD/svg11.dtd"><svg t="1688386636990" class="icon" viewBox="0 0 1024 1024" version="1.1" xmlns="http://www.w3.org/2000/svg" p-id="3457" width="24" height="24" xmlns:xlink="http://www.w3.org/1999/xlink"><path d="M512 512a53.44 53.44 0 0 0 17.4 39.413333l362.666667 330.6a52.833333 52.833333 0 0 0 35.713333 14 53.84 53.84 0 0 0 21.76-4.666666 52.666667 52.666667 0 0 0 31.793333-48.793334V181.406667A53.333333 53.333333 0 0 0 892.073333 142l-362.666666 330.6A53.44 53.44 0 0 0 512 512zM60.086667 472.586667l362.666666-330.6A53.333333 53.333333 0 0 1 512 181.406667v661.186666a52.666667 52.666667 0 0 1-31.793333 48.793334 53.84 53.84 0 0 1-21.76 4.666666 52.833333 52.833333 0 0 1-35.713334-14l-362.666666-330.6a53.333333 53.333333 0 0 1 0-78.826666z" fill="#5C5C66" p-id="3458"></path></svg>