<?xml version="1.0" standalone="no"?><!DOCTYPE svg PUBLIC "-//W3C//DTD SVG 1.1//EN" "http://www.w3.org/Graphics/SVG/1.1/DTD/svg11.dtd"><svg t="1616721275227" class="icon" viewBox="0 0 1024 1024" version="1.1" xmlns="http://www.w3.org/2000/svg" p-id="1168" width="24" height="24" xmlns:xlink="http://www.w3.org/1999/xlink"><defs><style type="text/css"></style></defs><path d="M782.7456 783.27808h-122.59328v-60.12928h122.59328a26.17344 26.17344 0 0 0 26.13248-26.13248V234.37312a26.17344 26.17344 0 0 0-26.13248-26.13248H412.75392c-12.94336 0-26.13248 16.01536-26.13248 31.78496v72.9088H326.49216V240.0256c0-22.28224 8.76544-45.01504 24.00256-62.34112 16.46592-18.80064 39.15776-29.53216 62.2592-29.53216h369.99168a86.34368 86.34368 0 0 1 86.26176 86.2208v462.6432a86.34368 86.34368 0 0 1-86.26176 86.26176z" p-id="1169"></path><path d="M589.6192 294.17472l-0.04096 19.57888 0.08192-19.57888a86.8352 86.8352 0 0 1 86.34368 80.4864l0.24576 6.144v460.84096a86.8352 86.8352 0 0 1-80.4864 86.34368l-6.144 0.24576h-368.64A86.8352 86.8352 0 0 1 134.5536 847.74912l-0.24576-6.144V380.7232A86.8352 86.8352 0 0 1 214.8352 294.37952l6.18496-0.2048h368.55808z m-0.12288 61.44H221.14304a25.3952 25.3952 0 0 0-24.9856 21.13536l-0.36864 4.096v460.63616a25.3952 25.3952 0 0 0 21.17632 24.9856l4.096 0.32768h368.4352a25.3952 25.3952 0 0 0 24.9856-21.13536l0.32768-4.096V380.928a25.3952 25.3952 0 0 0-21.58592-25.02656l-3.72736-0.28672z" p-id="1170"></path><path d="M251.57632 504.13568m29.20448 0l249.0368 0q29.20448 0 29.20448 29.20448l0-0.04096q0 29.20448-29.20448 29.20448l-249.0368 0q-29.20448 0-29.20448-29.20448l0 0.04096q0-29.20448 29.20448-29.20448Z" p-id="1171"></path><path d="M251.57632 656.75264m29.20448 0l249.0368 0q29.20448 0 29.20448 29.20448l0-0.04096q0 29.20448-29.20448 29.20448l-249.0368 0q-29.20448 0-29.20448-29.20448l0 0.04096q0-29.20448 29.20448-29.20448Z" p-id="1172"></path></svg>