<?xml version="1.0" standalone="no"?><!DOCTYPE svg PUBLIC "-//W3C//DTD SVG 1.1//EN" "http://www.w3.org/Graphics/SVG/1.1/DTD/svg11.dtd"><svg t="1666342045716" class="icon" viewBox="0 0 1024 1024" version="1.1" xmlns="http://www.w3.org/2000/svg" p-id="3417" xmlns:xlink="http://www.w3.org/1999/xlink" width="32" height="32"><path d="M877.714286 0a146.285714 146.285714 0 0 1 146.285714 146.285714v731.428572a146.285714 146.285714 0 0 1-146.285714 146.285714H146.285714a146.285714 146.285714 0 0 1-146.285714-146.285714V146.285714a146.285714 146.285714 0 0 1 146.285714-146.285714h731.428572z m0 73.142857H146.285714a73.142857 73.142857 0 0 0-72.630857 64.585143L73.142857 146.285714v731.428572a73.142857 73.142857 0 0 0 64.585143 72.630857L146.285714 950.857143h731.428572a73.142857 73.142857 0 0 0 72.630857-64.585143L950.857143 877.714286V146.285714a73.142857 73.142857 0 0 0-64.585143-72.630857L877.714286 73.142857zM256 667.428571a36.571429 36.571429 0 0 1 36.571429 36.571429V841.142857a36.571429 36.571429 0 0 1-36.571429 36.571429h-73.142857a36.571429 36.571429 0 0 1-36.571429-36.571429V704a36.571429 36.571429 0 0 1 36.571429-36.571429h73.142857z m390.070857 0a36.571429 36.571429 0 0 1 36.571429 36.571429V841.142857a36.571429 36.571429 0 0 1-36.571429 36.571429h-73.142857a36.571429 36.571429 0 0 1-36.571429-36.571429V704a36.571429 36.571429 0 0 1 36.571429-36.571429h73.142857z m-194.998857 0a36.571429 36.571429 0 0 1 36.571429 36.571429V841.142857a36.571429 36.571429 0 0 1-36.571429 36.571429h-73.142857a36.571429 36.571429 0 0 1-36.571429-36.571429V704a36.571429 36.571429 0 0 1 36.571429-36.571429h73.142857z m390.070857 0a36.571429 36.571429 0 0 1 36.571429 36.571429V841.142857a36.571429 36.571429 0 0 1-36.571429 36.571429h-73.142857a36.571429 36.571429 0 0 1-36.571429-36.571429V704a36.571429 36.571429 0 0 1 36.571429-36.571429h73.142857z m-585.142857-260.608a36.571429 36.571429 0 0 1 36.571429 36.571429v137.142857a36.571429 36.571429 0 0 1-36.571429 36.571429h-73.142857a36.571429 36.571429 0 0 1-36.571429-36.571429V443.465143a36.571429 36.571429 0 0 1 36.571429-36.571429h73.142857z m390.070857 0a36.571429 36.571429 0 0 1 36.571429 36.571429v137.142857a36.571429 36.571429 0 0 1-36.571429 36.571429h-73.142857a36.571429 36.571429 0 0 1-36.571429-36.571429V443.465143a36.571429 36.571429 0 0 1 36.571429-36.571429h73.142857z m-194.998857 0a36.571429 36.571429 0 0 1 36.571429 36.571429v137.142857a36.571429 36.571429 0 0 1-36.571429 36.571429h-73.142857a36.571429 36.571429 0 0 1-36.571429-36.571429V443.465143a36.571429 36.571429 0 0 1 36.571429-36.571429h73.142857z m390.070857 0a36.571429 36.571429 0 0 1 36.571429 36.571429v137.142857a36.571429 36.571429 0 0 1-36.571429 36.571429h-73.142857a36.571429 36.571429 0 0 1-36.571429-36.571429V443.465143a36.571429 36.571429 0 0 1 36.571429-36.571429h73.142857zM256 146.285714a36.571429 36.571429 0 0 1 36.571429 36.571429v137.142857a36.571429 36.571429 0 0 1-36.571429 36.571429h-73.142857a36.571429 36.571429 0 0 1-36.571429-36.571429V182.857143a36.571429 36.571429 0 0 1 36.571429-36.571429h73.142857z m390.070857 0a36.571429 36.571429 0 0 1 36.571429 36.571429v137.142857a36.571429 36.571429 0 0 1-36.571429 36.571429h-73.142857a36.571429 36.571429 0 0 1-36.571429-36.571429V182.857143a36.571429 36.571429 0 0 1 36.571429-36.571429h73.142857zM451.072 146.285714a36.571429 36.571429 0 0 1 36.571429 36.571429v137.142857a36.571429 36.571429 0 0 1-36.571429 36.571429h-73.142857a36.571429 36.571429 0 0 1-36.571429-36.571429V182.857143a36.571429 36.571429 0 0 1 36.571429-36.571429h73.142857zM841.142857 146.285714a36.571429 36.571429 0 0 1 36.571429 36.571429v137.142857a36.571429 36.571429 0 0 1-36.571429 36.571429h-73.142857a36.571429 36.571429 0 0 1-36.571429-36.571429V182.857143a36.571429 36.571429 0 0 1 36.571429-36.571429h73.142857z" fill="#000000" p-id="3418"></path></svg>