<svg aria-hidden="true" xmlns="http://www.w3.org/2000/svg" xmlns:xlink="http://www.w3.org/1999/xlink"><symbol id="icon-user" viewBox="0 0 1024 1024"><path d="M858.5 763.6c-18.9-44.8-46.1-85-80.6-119.5-34.5-34.5-74.7-61.6-119.5-80.6-0.4-0.2-0.8-0.3-1.2-0.5C719.5 518 760 444.7 760 362c0-137-111-248-248-248S264 225 264 362c0 82.7 40.5 156 102.8 201.1-0.4 0.2-0.8 0.3-1.2 0.5-44.8 18.9-85 46-119.5 80.6-34.5 34.5-61.6 74.7-80.6 119.5C146.9 807.5 137 854 136 901.8c-0.1 4.5 3.5 8.2 8 8.2h60c4.4 0 7.9-3.5 8-7.8 2-77.2 33-149.5 87.8-204.3 56.7-56.7 132-87.9 212.2-87.9s155.5 31.2 212.2 87.9C779 752.7 810 825 812 902.2c0.1 4.4 3.6 7.8 8 7.8h60c4.5 0 8.1-3.7 8-8.2-1-47.8-10.9-94.3-29.5-138.2zM512 534c-45.9 0-89.1-17.9-121.6-50.4S340 407.9 340 362c0-45.9 17.9-89.1 50.4-121.6S466.1 190 512 190s89.1 17.9 121.6 50.4S684 316.1 684 362c0 45.9-17.9 89.1-50.4 121.6S557.9 534 512 534z"></path></symbol><symbol id="icon-lock" viewBox="0 0 1024 1024"><path d="M832 464h-68V240c0-70.7-57.3-128-128-128H388c-70.7 0-128 57.3-128 128v224h-68c-17.7 0-32 14.3-32 32v384c0 17.7 14.3 32 32 32h640c17.7 0 32-14.3 32-32V496c0-17.7-14.3-32-32-32zM332 240c0-30.9 25.1-56 56-56h248c30.9 0 56 25.1 56 56v224H332V240z m460 600H232V536h560v304z"></path><path d="M484 701v53c0 4.4 3.6 8 8 8h40c4.4 0 8-3.6 8-8v-53c12.1-8.7 20-22.9 20-39 0-26.5-21.5-48-48-48s-48 21.5-48 48c0 16.1 7.9 30.3 20 39z"></path></symbol><symbol id="icon-message" viewBox="0 0 1024 1024"><path d="M512 512m-48 0a48 48 0 1 0 96 0 48 48 0 1 0-96 0Z"></path><path d="M712 512m-48 0a48 48 0 1 0 96 0 48 48 0 1 0-96 0Z"></path><path d="M312 512m-48 0a48 48 0 1 0 96 0 48 48 0 1 0-96 0Z"></path><path d="M925.2 338.4c-22.6-53.7-55-101.9-96.3-143.3-41.3-41.3-89.5-73.8-143.3-96.3C630.6 75.7 572.2 64 512 64h-2c-60.6 0.3-119.3 12.3-174.5 35.9-53.3 22.8-101.1 55.2-142 96.5-40.9 41.3-73 89.3-95.2 142.8-23 55.4-34.6 114.3-34.3 174.9 0.3 69.4 16.9 138.3 48 199.9v152c0 25.4 20.6 46 46 46h152.1c61.6 31.1 130.5 47.7 199.9 48h2.1c59.9 0 118-11.6 172.7-34.3 53.5-22.3 101.6-54.3 142.8-95.2 41.3-40.9 73.8-88.7 96.5-142 23.6-55.2 35.6-113.9 35.9-174.5 0.3-60.9-11.5-120-34.8-175.6z m-151.1 438C704 845.8 611 884 512 884h-1.7c-60.3-0.3-120.2-15.3-173.1-43.5l-8.4-4.5H188V695.2l-4.5-8.4C155.3 633.9 140.3 574 140 513.7c-0.4-99.7 37.7-193.3 107.6-263.8 69.8-70.5 163.1-109.5 262.8-109.9h1.7c50 0 98.5 9.7 144.2 28.9 44.6 18.7 84.6 45.6 119 80 34.3 34.3 61.3 74.4 80 119 19.4 46.2 29.1 95.2 28.9 145.8-0.6 99.6-39.7 192.9-110.1 262.7z"></path></symbol><symbol id="icon-eye-close" viewBox="0 0 1024 1024"><path d="M942.3 486.4l-0.1-0.1-0.1-0.1c-36.4-76.7-80-138.7-130.7-186L760.7 351c43.7 40.2 81.5 93.7 114.1 160.9C791.5 684.2 673.4 766 512 766c-51.3 0-98.3-8.3-141.2-25.1l-54.7 54.7C374.6 823.8 439.8 838 512 838c192.2 0 335.4-100.5 430.2-300.3 7.7-16.2 7.7-35 0.1-51.3zM878.3 154.2l-42.4-42.4c-3.1-3.1-8.2-3.1-11.3 0L707.8 228.5C649.4 200.2 584.2 186 512 186c-192.2 0-335.4 100.5-430.2 300.3v0.1c-7.7 16.2-7.7 35.2 0 51.5 36.4 76.7 80 138.7 130.7 186.1L111.8 824.5c-3.1 3.1-3.1 8.2 0 11.3l42.4 42.4c3.1 3.1 8.2 3.1 11.3 0l712.8-712.8c3.1-3 3.1-8.1 0-11.2zM398.9 537.4c-1.9-8.2-2.9-16.7-2.9-25.4 0-61.9 50.1-112 112-112 8.7 0 17.3 1 25.4 2.9L398.9 537.4z m184.5-184.5C560.5 342.1 535 336 508 336c-97.2 0-176 78.8-176 176 0 27 6.1 52.5 16.9 75.4L263.3 673c-43.7-40.2-81.5-93.7-114.1-160.9C232.6 339.8 350.7 258 512 258c51.3 0 98.3 8.3 141.2 25.1l-69.8 69.8z"></path><path d="M508 624c-6.4 0-12.7-0.5-18.8-1.6l-51.1 51.1c21.4 9.3 45.1 14.4 69.9 14.4 97.2 0 176-78.8 176-176 0-24.8-5.1-48.5-14.4-69.9l-51.1 51.1c1 6.1 1.6 12.4 1.6 18.8C620 573.9 569.9 624 508 624z"></path></symbol><symbol id="icon-eye" viewBox="0 0 1024 1024"><path d="M942.2 486.2C847.4 286.5 704.1 186 512 186c-192.2 0-335.4 100.5-430.2 300.3-7.7 16.2-7.7 35.2 0 51.5C176.6 737.5 319.9 838 512 838c192.2 0 335.4-100.5 430.2-300.3 7.7-16.2 7.7-35 0-51.5zM512 766c-161.3 0-279.4-81.8-362.7-254C232.6 339.8 350.7 258 512 258c161.3 0 279.4 81.8 362.7 254C791.5 684.2 673.4 766 512 766z"></path><path d="M508 336c-97.2 0-176 78.8-176 176s78.8 176 176 176 176-78.8 176-176-78.8-176-176-176z m0 288c-61.9 0-112-50.1-112-112s50.1-112 112-112 112 50.1 112 112-50.1 112-112 112z"></path></symbol><symbol id="icon-phone" viewBox="0 0 1024 1024"><path d="M877.1 238.7L770.6 132.3c-13-13-30.4-20.3-48.8-20.3s-35.8 7.2-48.8 20.3L558.3 246.8c-13 13-20.3 30.5-20.3 48.9 0 18.5 7.2 35.8 20.3 48.9l89.6 89.7c-20.6 47.8-49.6 90.6-86.4 127.3-36.7 36.9-79.6 66-127.2 86.6l-89.6-89.7c-13-13-30.4-20.3-48.8-20.3-18.5 0-35.8 7.2-48.8 20.3L132.3 673c-13 13-20.3 30.5-20.3 48.9 0 18.5 7.2 35.8 20.3 48.9l106.4 106.4c22.2 22.2 52.8 34.9 84.2 34.9 6.5 0 12.8-0.5 19.2-1.6 132.4-21.8 263.8-92.3 369.9-198.3C818 606 888.4 474.6 910.4 342.1c6.3-37.6-6.3-76.3-33.3-103.4z m-37.6 91.5c-19.5 117.9-82.9 235.5-178.4 331s-213 158.9-330.9 178.4c-14.8 2.5-30-2.5-40.8-13.2L184.9 721.9 295.7 611l119.8 120 0.9 0.9 21.6-8C570.7 675 674.9 570.8 723.7 438.1l8-21.6-120.8-120.7 110.8-110.9 104.5 104.5c10.8 10.8 15.8 26 13.3 40.8z"></path></symbol></svg>